<svg width="440" height="123" viewBox="0 0 440 123" fill="none" xmlns="http://www.w3.org/2000/svg">
<path d="M67.0677 24.184V101.107C85.7931 98.2771 100.121 82.1545 100.121 62.6457C100.121 43.1369 85.7678 27.0143 67.0677 24.184Z" fill="#00A5B5"/>
<path d="M51.9812 23.5777C51.9812 35.379 42.429 44.9312 30.6276 44.9312C18.8263 44.9312 9.27408 35.379 9.27408 23.5777C9.27408 11.7764 18.8263 2.22412 30.6276 2.22412C42.429 2.22412 51.9812 11.7764 51.9812 23.5777Z" fill="#00A5B5"/>
<path d="M67.826 0V12.8374C92.3131 16.0973 111.215 37.0718 111.215 62.4434C111.215 90.1146 88.8005 112.529 61.1293 112.529C59.8405 112.529 58.5517 112.479 57.2629 112.378V51.7034H0.682304C0.227436 54.6853 0 57.7683 0 60.8766C0 85.7175 14.7832 107.071 36.0357 116.674C33.7108 115.36 31.2343 113.566 28.8842 111.089C22.4907 104.342 17.3103 95.6488 14.4547 87.1074C9.57752 72.5768 11.0685 61.7863 11.0685 61.7863H46.7251V120.389C51.3749 121.526 56.2268 122.132 61.2304 122.132C95.0423 122.132 122.461 94.7138 122.461 60.9019C122.461 29.3138 98.5549 3.3357 67.826 0.0252711" fill="#00A5B5"/>
<path d="M186.092 47.0289C181.922 42.8592 176.944 40.7871 171.132 40.7871C165.32 40.7871 160.265 42.834 156.172 46.9025C152.002 51.0722 149.93 56.101 149.93 61.989C149.93 67.877 152.027 72.7795 156.172 76.9491C160.341 81.1188 165.32 83.1909 171.132 83.1909C176.944 83.1909 181.998 81.144 186.092 77.0502C190.261 72.8806 192.334 67.8518 192.334 61.9637C192.334 56.0757 190.236 51.1732 186.092 47.0036M189.781 80.487C184.702 85.5664 178.511 88.0934 171.157 88.0934C162.742 88.0934 155.793 84.6566 150.309 77.8083V114.451H145.28V36.6174H150.309V46.1697C155.54 39.2961 162.489 35.8846 171.157 35.8846C178.511 35.8846 184.677 38.3864 189.68 43.3647C194.734 48.444 197.287 54.6353 197.287 61.989C197.287 69.3427 194.785 75.5087 189.807 80.487" fill="white"/>
<path d="M211.969 0.177067H207.066V87.2339H211.969V0.177067Z" fill="white"/>
<path d="M263.066 47.0289C258.896 42.8592 253.918 40.7871 248.106 40.7871C242.293 40.7871 237.239 42.834 233.145 46.9025C228.976 51.0722 226.904 56.101 226.904 61.989C226.904 67.877 228.976 72.7795 233.145 76.9491C237.315 81.1188 242.293 83.1909 248.106 83.1909C253.918 83.1909 258.972 81.144 263.066 77.0502C267.235 72.8806 269.308 67.8517 269.308 61.9637C269.308 56.0757 267.21 51.1732 263.066 47.0036M268.347 87.2342V78.5412C263.04 84.9093 256.293 88.0934 248.131 88.0934C240.777 88.0934 234.611 85.5916 229.633 80.6133C224.554 75.534 222.026 69.3427 222.026 61.989C222.026 54.6353 224.528 48.4693 229.507 43.491C234.586 38.4369 240.777 35.8846 248.131 35.8846C256.217 35.8846 262.965 39.0687 268.347 45.4368V36.6174H273.376V87.2342H268.347Z" fill="white"/>
<path d="M292.758 23.628C292.758 25.8265 290.99 27.5954 288.791 27.5954C286.592 27.5954 284.824 25.8265 284.824 23.628C284.824 21.4294 286.618 19.6605 288.791 19.6605C290.964 19.6605 292.758 21.4294 292.758 23.628ZM286.138 36.617H291.166V87.2338H286.138V36.617Z" fill="white"/>
<path d="M338.321 87.2337V56.9597C338.321 46.245 333.494 40.9129 323.866 40.9129C319.115 40.9129 315.527 42.3028 313.076 45.0826C310.549 47.8623 309.285 51.6529 309.285 56.4795V87.2337H304.256V36.6169H309.285V42.7577C311.56 38.2595 316.437 36.0104 323.866 36.0104C330.159 36.0104 334.985 37.8046 338.321 41.3931C341.682 44.9815 343.35 50.0103 343.35 56.4795V87.2337H338.321Z" fill="white"/>
<path d="M353.686 87.2343L357.501 14.4553H372.184L368.368 87.2343H353.686Z" fill="#00A5B5"/>
<path d="M394.775 26.762L392.248 74.9528H403.216C407.309 74.9528 410.291 74.7254 412.136 74.2705C414.562 73.664 416.584 72.6532 418.226 71.238C419.869 69.8229 421.284 67.4727 422.446 64.2129C423.609 60.953 424.342 56.5054 424.645 50.8953C424.948 45.26 424.645 40.964 423.836 37.9315C423.002 34.9244 421.739 32.5742 420.046 30.8811C418.353 29.188 416.129 28.0508 413.425 27.4443C411.403 26.9894 407.385 26.762 401.396 26.762H394.801H394.775ZM380.725 14.4553H407.587C413.652 14.4553 418.252 14.9101 421.36 15.8451C425.555 17.1087 429.093 19.3325 431.973 22.5418C434.854 25.7512 436.952 29.6934 438.316 34.3431C439.656 38.9929 440.161 44.7293 439.807 51.5523C439.504 57.5414 438.468 62.6966 436.75 67.0431C434.652 72.3499 431.822 76.6207 428.284 79.9058C425.605 82.3823 422.067 84.3282 417.645 85.718C414.335 86.7541 409.988 87.2595 404.555 87.2595H376.909L380.725 14.4805V14.4553Z" fill="#00A5B5"/>
</svg>
